<svg width="1200" height="1200" viewBox="0 0 1200 1200" fill="none" xmlns="http://www.w3.org/2000/svg">
<path d="M1012.5 487.5C989.315 487.596 966.726 494.853 947.824 508.278C928.921 521.703 914.628 540.641 906.9 562.5H750C742.744 562.499 735.644 564.603 729.561 568.557C723.477 572.511 718.671 578.144 715.725 584.775L611.925 818.325L486.638 254.363C484.934 246.647 480.837 239.666 474.931 234.417C469.025 229.167 461.611 225.918 453.749 225.132C445.886 224.346 437.976 226.064 431.148 230.041C424.319 234.017 418.922 240.049 415.725 247.275L275.662 562.5H112.5C102.554 562.5 93.0161 566.451 85.9835 573.484C78.9509 580.516 75 590.054 75 600C75 609.946 78.9509 619.484 85.9835 626.517C93.0161 633.549 102.554 637.5 112.5 637.5H300C307.256 637.501 314.356 635.397 320.439 631.443C326.523 627.489 331.329 621.856 334.275 615.225L438.075 381.675L563.362 945.637C565.041 953.378 569.128 960.388 575.035 965.662C580.944 970.937 588.37 974.206 596.25 975C597.499 975.074 598.751 975.074 600 975C607.256 975.001 614.356 972.897 620.439 968.943C626.523 964.989 631.329 959.356 634.275 952.725L774.338 637.5H906.9C913.808 656.894 925.915 674.016 941.896 686.995C957.877 699.974 977.119 708.311 997.517 711.094C1017.92 713.877 1038.69 711 1057.56 702.776C1076.44 694.553 1092.69 681.3 1104.54 664.466C1116.39 647.631 1123.39 627.863 1124.76 607.321C1126.14 586.78 1121.84 566.255 1112.34 547.99C1102.84 529.725 1088.51 514.422 1070.9 503.754C1053.29 493.086 1033.09 487.463 1012.5 487.5ZM1012.5 637.5C1005.08 637.5 997.833 635.301 991.666 631.18C985.499 627.06 980.693 621.203 977.854 614.351C975.016 607.498 974.274 599.958 975.721 592.684C977.167 585.41 980.739 578.728 985.983 573.484C991.228 568.239 997.91 564.668 1005.18 563.221C1012.46 561.774 1020 562.516 1026.85 565.355C1033.7 568.193 1039.56 572.999 1043.68 579.166C1047.8 585.333 1050 592.583 1050 600C1050 609.946 1046.05 619.484 1039.02 626.517C1031.98 633.549 1022.45 637.5 1012.5 637.5Z" fill="url(#paint0_linear_19_167)"/>
<defs>
<linearGradient id="paint0_linear_19_167" x1="439.425" y1="888.112" x2="763.687" y2="326.475" gradientUnits="userSpaceOnUse">
<stop stop-color="#1A3C3F"/>
<stop offset="1" stop-color="#5DC9C4"/>
</linearGradient>
</defs>
</svg>
